<?xml version="1.0" encoding="UTF-8" standalone="no"?>
<!-- Created with Inkscape (http://www.inkscape.org/) -->

<svg
   xmlns:dc="http://purl.org/dc/elements/1.1/"
   xmlns:cc="http://creativecommons.org/ns#"
   xmlns:rdf="http://www.w3.org/1999/02/22-rdf-syntax-ns#"
   xmlns:svg="http://www.w3.org/2000/svg"
   xmlns="http://www.w3.org/2000/svg"
   xmlns:sodipodi="http://sodipodi.sourceforge.net/DTD/sodipodi-0.dtd"
   xmlns:inkscape="http://www.inkscape.org/namespaces/inkscape"
   width="192"
   height="128"
   id="svg3659"
   version="1.1"
   inkscape:version="0.47 r22583"
   sodipodi:docname="logo.svg"
   inkscape:export-filename="D:\EclipseWorkspace\FEAS\doc\source\_static\logo.png"
   inkscape:export-xdpi="90"
   inkscape:export-ydpi="90">
  <defs
     id="defs3661">
    <inkscape:perspective
       sodipodi:type="inkscape:persp3d"
       inkscape:vp_x="0 : 526.18109 : 1"
       inkscape:vp_y="0 : 1000 : 0"
       inkscape:vp_z="744.09448 : 526.18109 : 1"
       inkscape:persp3d-origin="372.04724 : 350.78739 : 1"
       id="perspective3667" />
    <inkscape:perspective
       id="perspective3654"
       inkscape:persp3d-origin="0.5 : 0.33333333 : 1"
       inkscape:vp_z="1 : 0.5 : 1"
       inkscape:vp_y="0 : 1000 : 0"
       inkscape:vp_x="0 : 0.5 : 1"
       sodipodi:type="inkscape:persp3d" />
    <inkscape:perspective
       id="perspective3768"
       inkscape:persp3d-origin="0.5 : 0.33333333 : 1"
       inkscape:vp_z="1 : 0.5 : 1"
       inkscape:vp_y="0 : 1000 : 0"
       inkscape:vp_x="0 : 0.5 : 1"
       sodipodi:type="inkscape:persp3d" />
    <inkscape:perspective
       id="perspective3793"
       inkscape:persp3d-origin="0.5 : 0.33333333 : 1"
       inkscape:vp_z="1 : 0.5 : 1"
       inkscape:vp_y="0 : 1000 : 0"
       inkscape:vp_x="0 : 0.5 : 1"
       sodipodi:type="inkscape:persp3d" />
  </defs>
  <sodipodi:namedview
     id="base"
     pagecolor="#ffffff"
     bordercolor="#666666"
     borderopacity="1.0"
     inkscape:pageopacity="0.0"
     inkscape:pageshadow="2"
     inkscape:zoom="0.98994949"
     inkscape:cx="35.606128"
     inkscape:cy="-63.350237"
     inkscape:document-units="px"
     inkscape:current-layer="layer1"
     showgrid="false"
     inkscape:window-width="1027"
     inkscape:window-height="828"
     inkscape:window-x="647"
     inkscape:window-y="114"
     inkscape:window-maximized="0" />
  <metadata
     id="metadata3664">
    <rdf:RDF>
      <cc:Work
         rdf:about="">
        <dc:format>image/svg+xml</dc:format>
        <dc:type
           rdf:resource="http://purl.org/dc/dcmitype/StillImage" />
        <dc:title></dc:title>
      </cc:Work>
    </rdf:RDF>
  </metadata>
  <g
     inkscape:label="Ebene 1"
     inkscape:groupmode="layer"
     id="layer1"
     transform="translate(0,-924.36218)">
    <text
       xml:space="preserve"
       style="font-size:48px;font-style:normal;font-variant:normal;font-weight:bold;font-stretch:normal;text-align:start;line-height:125%;writing-mode:lr-tb;text-anchor:start;fill:#87aade;fill-opacity:1;stroke:none;font-family:Sans Serif"
       x="38.179688"
       y="1041.9888"
       id="text1869"
       sodipodi:linespacing="125%"><tspan
         sodipodi:role="line"
         id="tspan1871"
         x="38.179688"
         y="1041.9888"
         style="font-size:48px;font-style:normal;font-variant:normal;font-weight:normal;font-stretch:normal;text-align:start;line-height:125%;writing-mode:lr-tb;text-anchor:start;fill:#024698;fill-opacity:1;font-family:Times New Roman;-inkscape-font-specification:Times New Roman">FEAS</tspan></text>
    <g
       transform="matrix(0.35455975,0.04639809,-0.04639809,0.35455975,-3.3766975,827.63418)"
       style="display:inline"
       id="g2795">
      <path
         sodipodi:nodetypes="ccssccssc"
         id="path2448"
         d="m 201.39916,401.95021 0.7437,3.17348 c 36.96413,-4.42724 85.94488,-10.75762 114.41198,-12.3827 26.16219,-1.4863 56.61903,0.0291 74.57524,-1.61349 25.16301,-2.29042 46.49446,-11.13362 46.65944,-18.39286 -0.59906,-7.20751 -20.60763,-12.72599 -35.5484,-15.56001 -21.75776,-4.28425 -38.57639,-1.5649 -46.07142,0.71428 -23.03596,7.00506 -27.37806,10.30174 -45.95306,16.01543 -39.55307,12.16657 -64.99241,16.7243 -108.81748,28.04587 z"
         style="fill:#ebeae2;fill-opacity:1;fill-rule:evenodd;stroke:#000000;stroke-width:0.58914566;stroke-linecap:butt;stroke-linejoin:bevel;stroke-miterlimit:4;stroke-opacity:1;stroke-dasharray:none" />
      <path
         sodipodi:nodetypes="cccccc"
         id="path2446"
         d="M 392.23114,355.62482 563.5281,240.7244 l -13.20695,1.08048 -89.66761,56.06244 -92.20359,57.64801 23.78119,0.10949 z"
         style="fill:#ebeae2;fill-opacity:1;fill-rule:evenodd;stroke:#000000;stroke-width:0.58914566;stroke-linecap:butt;stroke-linejoin:bevel;stroke-miterlimit:4;stroke-opacity:1;stroke-dasharray:none" />
      <path
         sodipodi:nodetypes="cssccccc"
         id="path2444"
         d="m 108.69286,456.34735 c 0,0 237.96015,-76.509 247.02143,-79.69945 2.42032,-0.85219 -0.69028,-1.9561 -2.81251,-2.18751 -4.81192,-0.52469 -20.04464,1.47322 -20.04464,1.47322 l -11.42857,3.57143 -219.44196,75.7366 c 1.29268,1.21134 2.02882,1.25564 3.80592,2.05093 2.90033,-0.94522 2.90033,-0.94522 2.90033,-0.94522 z"
         style="fill:#ebeae2;fill-opacity:1;fill-rule:evenodd;stroke:#000000;stroke-width:0.58914566;stroke-linecap:butt;stroke-linejoin:bevel;stroke-miterlimit:4;stroke-opacity:1;stroke-dasharray:none" />
      <path
         sodipodi:nodetypes="cscccc"
         id="path3301"
         d="m 197.61109,347.52824 c 0,0 24.69221,43.81026 26.26397,45.45687 1.32582,1.38896 3.36629,2.50594 6.06338,1.85299 -12.03959,2.90326 -28.53928,7.11211 -28.53928,7.11211 l -17.42513,-48.86613 13.63706,-5.55584 z"
         style="fill:#ebeae2;fill-opacity:1;fill-rule:evenodd;stroke:#000000;stroke-width:0.58914566;stroke-linecap:butt;stroke-linejoin:bevel;stroke-miterlimit:4;stroke-opacity:1;stroke-dasharray:none" />
      <path
         sodipodi:nodetypes="cccccc"
         id="path3303"
         d="m 202.14285,405.12369 -13.24432,0.36206 -14.14214,-49.24494 9.21764,-3.15673 17.42513,48.86613 0.74369,3.17348 z"
         style="fill:#ebeae2;fill-opacity:1;fill-rule:evenodd;stroke:#000000;stroke-width:0.58914566;stroke-linecap:butt;stroke-linejoin:bevel;stroke-miterlimit:4;stroke-opacity:1;stroke-dasharray:none" />
      <path
         sodipodi:nodetypes="cccccccc"
         id="path3305"
         d="m 197.61109,347.52824 32.32488,-17.04632 -6.69226,0 -75.5089,32.57742 5.55584,0.50507 21.46574,-7.3236 9.21764,-3.15673 13.63706,-5.55584 z"
         style="fill:#ebeae2;fill-opacity:1;fill-rule:evenodd;stroke:#000000;stroke-width:0.58914566;stroke-linecap:butt;stroke-linejoin:bevel;stroke-miterlimit:4;stroke-opacity:1;stroke-dasharray:none" />
      <path
         sodipodi:nodetypes="csssccc"
         id="path3323"
         d="m 563.5281,240.7244 c 2.36872,-2.2323 3.05499,-3.49385 3.50719,-6.20946 1.0842,-6.51099 -6.42155,-18.90598 -9.77553,-17.0132 -2.30036,1.29818 -0.44992,7.64348 -0.96711,12.92094 -0.45259,4.61829 -1.89687,8.64832 -3.70337,9.95289 -0.59402,0.3802 -2.26813,1.42931 -2.26813,1.42931 l 13.20695,-1.08048 z"
         style="fill:#ebeae2;fill-opacity:1;fill-rule:evenodd;stroke:#000000;stroke-width:0.58914566;stroke-linecap:butt;stroke-linejoin:bevel;stroke-miterlimit:4;stroke-opacity:1;stroke-dasharray:none" />
      <path
         sodipodi:nodetypes="cscssc"
         id="path3325"
         d="m 108.69286,456.34735 c -3.80008,1.18736 -9.226628,-2.04232 -14.487115,-6.01685 -5.076498,-3.83553 -11.901205,-11.44195 -14.845636,-11.06777 -3.127171,3.02443 3.681884,11.86602 9.848987,15.65735 3.93781,2.42083 11.237764,3.62764 15.100134,2.79738 1.10676,-0.23791 1.1871,-0.37084 4.38363,-1.37011 z"
         style="fill:#ebeae2;fill-opacity:1;fill-rule:evenodd;stroke:#000000;stroke-width:0.58914566;stroke-linecap:butt;stroke-linejoin:bevel;stroke-miterlimit:4;stroke-opacity:1;stroke-dasharray:none" />
      <path
         sodipodi:nodetypes="cscsssssccccc"
         id="path3321"
         d="m 416.90625,360.6875 c -1.00142,-0.28176 -1.88994,-0.64403 -2.90625,-0.90625 -3.98621,-1.02851 -8.01481,-1.88524 -11.75,-2.59375 -2.71972,-0.53553 -5.38069,-0.98129 -7.9375,-1.3125 -2.55681,-0.33121 -5.02948,-0.56279 -7.40625,-0.71875 -4.75354,-0.31192 -9.13187,-0.30835 -13.0625,-0.0937 -3.93063,0.2146 -7.4043,0.64774 -10.375,1.15625 -2.9707,0.50851 -5.43874,1.08646 -7.3125,1.65625 -0.73123,0.22236 -1.11789,0.37867 -1.8125,0.59375 -0.72713,6.98922 -0.31805,10.90863 3.75,17.21875 l 19.0625,-0.625 L 409.5,373.6563 c 3.69713,-9.5401 5.53078,-11.0917 7.40625,-12.96875 z"
         style="fill:#ebeae2;fill-opacity:1;fill-rule:evenodd;stroke:#000000;stroke-width:0.58914566;stroke-linecap:butt;stroke-linejoin:bevel;stroke-miterlimit:4;stroke-opacity:1;stroke-dasharray:none" />
    </g>
  </g>
</svg>
